<svg width="100" height="30" viewBox="0 0 100 30" fill="none" xmlns="http://www.w3.org/2000/svg">

  <!-- A — origami ribbon (first) -->
  <path d="M21,6 L14,24 L18,24 L23,13 Z" fill="white" />
  <path d="M21,6 L28,24 L24,24 L19,13 Z" fill="white" fill-opacity="0.5" />

  <!-- Central Data Core on first A -->
  <circle cx="21" cy="19" r="2.5" fill="#8b5cf6" />
  <circle cx="21" cy="19" r="1.2" fill="white" />

  <!-- T — angular bar + tapered stem -->
  <path d="M30,6 L42,6 L41,10 L31,10 Z" fill="white" />
  <path d="M34,10 L38,10 L37,24 L35,24 Z" fill="white" fill-opacity="0.5" />

  <!-- L — tapered vertical + angled base -->
  <path d="M44,6 L48,6 L47.5,21 L44,21 Z" fill="white" />
  <path d="M44,21 L55,21 L54,24 L44,24 Z" fill="white" fill-opacity="0.5" />

  <!-- A — origami ribbon (second) -->
  <path d="M64,6 L57,24 L61,24 L66,13 Z" fill="white" />
  <path d="M64,6 L71,24 L67,24 L62,13 Z" fill="white" fill-opacity="0.5" />

  <!-- S — interlocking angular hooks -->
  <path d="M85,6 H73 V15 H85 V12 H77 V9 H85 Z" fill="white" />
  <path d="M73,15 H85 V24 H73 V21 H81 V18 H73 Z" fill="white" fill-opacity="0.5" />
</svg>
